<mxfile host="Electron" modified="2023-06-17T10:35:59.260Z" agent="Mozilla/5.0 (Macintosh; Intel Mac OS X 10_15_7) AppleWebKit/537.36 (KHTML, like Gecko) draw.io/21.2.8 Chrome/112.0.5615.165 Electron/24.2.0 Safari/537.36" etag="bhEVEkjsZOHKEsefaPaD" version="21.2.8" type="device">
  <diagram name="Page-1" id="3IQueL-BJVOfsXm29kdx">
    <mxGraphModel dx="1632" dy="1214" grid="1" gridSize="10" guides="1" tooltips="1" connect="1" arrows="1" fold="1" page="1" pageScale="1" pageWidth="827" pageHeight="583" math="0" shadow="0">
      <root>
        <mxCell id="0" />
        <mxCell id="1" parent="0" />
        <mxCell id="LzsQwRiTMzF_nfRUcaYK-4" style="edgeStyle=orthogonalEdgeStyle;rounded=0;orthogonalLoop=1;jettySize=auto;html=1;" parent="1" source="LzsQwRiTMzF_nfRUcaYK-1" target="LzsQwRiTMzF_nfRUcaYK-3" edge="1">
          <mxGeometry relative="1" as="geometry" />
        </mxCell>
        <mxCell id="LzsQwRiTMzF_nfRUcaYK-1" value="logs-* tema" style="shape=cylinder3;whiteSpace=wrap;html=1;boundedLbl=1;backgroundOutline=1;size=15;rotation=90;horizontal=0;fontSize=17;fontStyle=1" parent="1" vertex="1">
          <mxGeometry x="157.5" y="-47.5" width="45" height="285" as="geometry" />
        </mxCell>
        <mxCell id="LzsQwRiTMzF_nfRUcaYK-6" style="edgeStyle=orthogonalEdgeStyle;rounded=0;orthogonalLoop=1;jettySize=auto;html=1;" parent="1" source="LzsQwRiTMzF_nfRUcaYK-3" target="LzsQwRiTMzF_nfRUcaYK-5" edge="1">
          <mxGeometry relative="1" as="geometry" />
        </mxCell>
        <mxCell id="LzsQwRiTMzF_nfRUcaYK-3" value="Filter&lt;br&gt;po Error statusu" style="rounded=0;whiteSpace=wrap;html=1;" parent="1" vertex="1">
          <mxGeometry x="400" y="58.75" width="110" height="72.5" as="geometry" />
        </mxCell>
        <mxCell id="LzsQwRiTMzF_nfRUcaYK-10" style="edgeStyle=orthogonalEdgeStyle;rounded=0;orthogonalLoop=1;jettySize=auto;html=1;entryX=1;entryY=0.5;entryDx=0;entryDy=0;exitX=1;exitY=0.5;exitDx=0;exitDy=0;" parent="1" source="LzsQwRiTMzF_nfRUcaYK-5" target="LzsQwRiTMzF_nfRUcaYK-9" edge="1">
          <mxGeometry relative="1" as="geometry">
            <Array as="points">
              <mxPoint x="770" y="95" />
              <mxPoint x="770" y="292" />
            </Array>
          </mxGeometry>
        </mxCell>
        <mxCell id="LzsQwRiTMzF_nfRUcaYK-5" value="Grupiranje po&lt;br&gt;ključu poruke" style="rounded=0;whiteSpace=wrap;html=1;" parent="1" vertex="1">
          <mxGeometry x="610" y="58.75" width="120" height="71.25" as="geometry" />
        </mxCell>
        <mxCell id="LzsQwRiTMzF_nfRUcaYK-17" style="edgeStyle=orthogonalEdgeStyle;rounded=0;orthogonalLoop=1;jettySize=auto;html=1;entryX=1;entryY=0;entryDx=0;entryDy=52.5;entryPerimeter=0;exitX=0.5;exitY=0;exitDx=0;exitDy=0;exitPerimeter=0;" parent="1" source="LzsQwRiTMzF_nfRUcaYK-8" target="LzsQwRiTMzF_nfRUcaYK-11" edge="1">
          <mxGeometry relative="1" as="geometry" />
        </mxCell>
        <mxCell id="LzsQwRiTMzF_nfRUcaYK-8" value="Interna Kafka tema za agregaciju" style="shape=cylinder3;whiteSpace=wrap;html=1;boundedLbl=1;backgroundOutline=1;size=15;rotation=90;strokeColor=#595959;horizontal=0;fontColor=#666666;" parent="1" vertex="1">
          <mxGeometry x="637.5" y="380" width="45" height="250" as="geometry" />
        </mxCell>
        <mxCell id="LzsQwRiTMzF_nfRUcaYK-12" style="edgeStyle=orthogonalEdgeStyle;rounded=0;orthogonalLoop=1;jettySize=auto;html=1;entryX=1;entryY=0.5;entryDx=0;entryDy=0;entryPerimeter=0;exitX=1;exitY=0.75;exitDx=0;exitDy=0;" parent="1" source="LzsQwRiTMzF_nfRUcaYK-9" target="LzsQwRiTMzF_nfRUcaYK-11" edge="1">
          <mxGeometry relative="1" as="geometry" />
        </mxCell>
        <mxCell id="c1O0RjgxsUdkgKfrR-Vy-2" style="edgeStyle=orthogonalEdgeStyle;rounded=0;orthogonalLoop=1;jettySize=auto;html=1;" parent="1" source="LzsQwRiTMzF_nfRUcaYK-9" target="c1O0RjgxsUdkgKfrR-Vy-1" edge="1">
          <mxGeometry relative="1" as="geometry" />
        </mxCell>
        <mxCell id="LzsQwRiTMzF_nfRUcaYK-9" value="Agregiranje po poruci dnevničkog zapisa" style="rounded=0;whiteSpace=wrap;html=1;" parent="1" vertex="1">
          <mxGeometry x="590" y="240" width="140" height="103" as="geometry" />
        </mxCell>
        <mxCell id="LzsQwRiTMzF_nfRUcaYK-14" style="edgeStyle=orthogonalEdgeStyle;rounded=0;orthogonalLoop=1;jettySize=auto;html=1;entryX=0;entryY=0.75;entryDx=0;entryDy=0;exitX=0;exitY=0.5;exitDx=0;exitDy=0;exitPerimeter=0;" parent="1" source="LzsQwRiTMzF_nfRUcaYK-11" target="LzsQwRiTMzF_nfRUcaYK-9" edge="1">
          <mxGeometry relative="1" as="geometry" />
        </mxCell>
        <mxCell id="LzsQwRiTMzF_nfRUcaYK-16" style="edgeStyle=orthogonalEdgeStyle;rounded=0;orthogonalLoop=1;jettySize=auto;html=1;entryX=0.5;entryY=1;entryDx=0;entryDy=0;entryPerimeter=0;exitX=0;exitY=0;exitDx=0;exitDy=52.5;exitPerimeter=0;" parent="1" source="LzsQwRiTMzF_nfRUcaYK-11" target="LzsQwRiTMzF_nfRUcaYK-8" edge="1">
          <mxGeometry relative="1" as="geometry">
            <Array as="points">
              <mxPoint x="510" y="423" />
              <mxPoint x="510" y="505" />
            </Array>
          </mxGeometry>
        </mxCell>
        <mxCell id="LzsQwRiTMzF_nfRUcaYK-11" value="&lt;font color=&quot;#4d4d4d&quot;&gt;Kafka Streams interna baza podataka za agregaciju&lt;/font&gt;" style="shape=cylinder3;whiteSpace=wrap;html=1;boundedLbl=1;backgroundOutline=1;size=6;strokeColor=#595959;" parent="1" vertex="1">
          <mxGeometry x="600" y="370" width="120" height="80" as="geometry" />
        </mxCell>
        <mxCell id="LzsQwRiTMzF_nfRUcaYK-18" value="aggregated-errors tema" style="shape=cylinder3;whiteSpace=wrap;html=1;boundedLbl=1;backgroundOutline=1;size=15;rotation=90;horizontal=0;fontSize=17;fontStyle=1" parent="1" vertex="1">
          <mxGeometry x="157.5" y="149" width="45" height="285" as="geometry" />
        </mxCell>
        <mxCell id="c1O0RjgxsUdkgKfrR-Vy-3" style="edgeStyle=orthogonalEdgeStyle;rounded=0;orthogonalLoop=1;jettySize=auto;html=1;" parent="1" source="c1O0RjgxsUdkgKfrR-Vy-1" target="LzsQwRiTMzF_nfRUcaYK-18" edge="1">
          <mxGeometry relative="1" as="geometry" />
        </mxCell>
        <mxCell id="c1O0RjgxsUdkgKfrR-Vy-1" value="Mapiranje" style="rounded=0;whiteSpace=wrap;html=1;" parent="1" vertex="1">
          <mxGeometry x="400" y="262" width="120" height="60" as="geometry" />
        </mxCell>
      </root>
    </mxGraphModel>
  </diagram>
</mxfile>
